<?xml version="1.0" encoding="UTF-8" standalone="no"?>
<svg
   xmlns:dc="http://purl.org/dc/elements/1.1/"
   xmlns:cc="http://creativecommons.org/ns#"
   xmlns:rdf="http://www.w3.org/1999/02/22-rdf-syntax-ns#"
   xmlns:svg="http://www.w3.org/2000/svg"
   xmlns="http://www.w3.org/2000/svg"
   xmlns:sodipodi="http://sodipodi.sourceforge.net/DTD/sodipodi-0.dtd"
   xmlns:inkscape="http://www.inkscape.org/namespaces/inkscape"
   version="1.1"
   id="svg2"
   width="366.54544"
   height="219.27274"
   viewBox="0 0 366.54544 219.27274"
   sodipodi:docname="Climb Taiwan Logo White Large Text SVG.svg"
   inkscape:version="1.0.1 (3bc2e813f5, 2020-09-07)">
  <metadata
     id="metadata8">
    <rdf:RDF>
      <cc:Work
         rdf:about="">
        <dc:format>image/svg+xml</dc:format>
        <dc:type
           rdf:resource="http://purl.org/dc/dcmitype/StillImage" />
        <dc:title></dc:title>
      </cc:Work>
    </rdf:RDF>
  </metadata>
  <defs
     id="defs6">
    <inkscape:path-effect
       effect="spiro"
       id="path-effect99"
       is_visible="true"
       lpeversion="1" />
    <inkscape:path-effect
       effect="spiro"
       id="path-effect97"
       is_visible="true"
       lpeversion="1" />
    <inkscape:path-effect
       effect="spiro"
       id="path-effect95"
       is_visible="true"
       lpeversion="1" />
    <inkscape:path-effect
       effect="spiro"
       id="path-effect1138"
       is_visible="true"
       lpeversion="1" />
    <inkscape:path-effect
       effect="spiro"
       id="path-effect1136"
       is_visible="true"
       lpeversion="1" />
    <inkscape:path-effect
       effect="spiro"
       id="path-effect1134"
       is_visible="true"
       lpeversion="1" />
    <inkscape:path-effect
       effect="spiro"
       id="path-effect1019"
       is_visible="true"
       lpeversion="1" />
    <inkscape:path-effect
       effect="spiro"
       id="path-effect1017"
       is_visible="true"
       lpeversion="1" />
    <inkscape:path-effect
       effect="spiro"
       id="path-effect1015"
       is_visible="true"
       lpeversion="1" />
    <inkscape:path-effect
       effect="spiro"
       id="path-effect901"
       is_visible="true"
       lpeversion="1" />
    <inkscape:path-effect
       effect="spiro"
       id="path-effect899"
       is_visible="true"
       lpeversion="1" />
    <inkscape:path-effect
       effect="spiro"
       id="path-effect897"
       is_visible="true"
       lpeversion="1" />
    <inkscape:path-effect
       effect="spiro"
       id="path-effect1010"
       is_visible="true"
       lpeversion="1" />
    <inkscape:path-effect
       effect="spiro"
       id="path-effect1008"
       is_visible="true"
       lpeversion="1" />
    <inkscape:path-effect
       effect="spiro"
       id="path-effect1006"
       is_visible="true"
       lpeversion="1" />
    <inkscape:path-effect
       effect="spiro"
       id="path-effect151"
       is_visible="true"
       lpeversion="1" />
    <inkscape:path-effect
       effect="spiro"
       id="path-effect149"
       is_visible="true"
       lpeversion="1" />
    <inkscape:path-effect
       effect="spiro"
       id="path-effect147"
       is_visible="true"
       lpeversion="1" />
    <inkscape:path-effect
       effect="spiro"
       id="path-effect102"
       is_visible="true"
       lpeversion="1" />
    <inkscape:path-effect
       effect="spiro"
       id="path-effect100"
       is_visible="true"
       lpeversion="1" />
    <inkscape:path-effect
       effect="spiro"
       id="path-effect98"
       is_visible="true"
       lpeversion="1" />
    <inkscape:path-effect
       effect="spiro"
       id="path-effect64"
       is_visible="true"
       lpeversion="1" />
    <inkscape:path-effect
       effect="spiro"
       id="path-effect62"
       is_visible="true"
       lpeversion="1" />
    <inkscape:path-effect
       effect="spiro"
       id="path-effect60"
       is_visible="true"
       lpeversion="1" />
    <inkscape:path-effect
       effect="spiro"
       id="path-effect31"
       is_visible="true"
       lpeversion="1" />
    <inkscape:path-effect
       effect="spiro"
       id="path-effect27"
       is_visible="true"
       lpeversion="1" />
    <inkscape:path-effect
       effect="spiro"
       id="path-effect19"
       is_visible="true"
       lpeversion="1" />
  </defs>
  <sodipodi:namedview
     pagecolor="#ffffff"
     bordercolor="#666666"
     borderopacity="1"
     objecttolerance="10"
     gridtolerance="10"
     guidetolerance="10"
     inkscape:pageopacity="0"
     inkscape:pageshadow="2"
     inkscape:window-width="958"
     inkscape:window-height="991"
     id="namedview4"
     showgrid="false"
     inkscape:zoom="1.4550879"
     inkscape:cx="202.1762"
     inkscape:cy="261.56285"
     inkscape:window-x="952"
     inkscape:window-y="0"
     inkscape:window-maximized="0"
     inkscape:current-layer="layer1"
     inkscape:document-rotation="0" />
  <g
     inkscape:groupmode="layer"
     id="layer1"
     inkscape:label="Image 1">
    <text
       xml:space="preserve"
       style="font-size:18.6667px;line-height:1.25;font-family:Arial;-inkscape-font-specification:'Arial, Normal';letter-spacing:0px"
       x="1202.2797"
       y="1067.6562"
       id="text1027"><tspan
         sodipodi:role="line"
         id="tspan1025"
         x="1202.2797"
         y="1067.6562" /></text>
    <g
       id="g115-9-4-0-5"
       transform="matrix(0.15033069,0,0,0.15033292,-117.69682,50.356384)"
       style="stroke-width:4.58619;stroke-miterlimit:4;stroke-dasharray:none">
      <path
         style="fill:none;stroke:#000000;stroke-width:4.58619;stroke-linecap:butt;stroke-linejoin:miter;stroke-miterlimit:4;stroke-dasharray:none;stroke-opacity:1"
         d="m 1107.9614,175.38507 c -5.2972,0.50803 -10.2191,2.98276 -14.6297,5.96023 -6.1997,4.18524 -11.6417,9.41959 -17.8807,13.54597 -3.9143,2.58888 -8.119,4.72431 -12.4623,6.50207 -10.3649,4.24251 -21.4544,6.43693 -31.9685,10.29494 -15.4271,5.66079 -29.2986,14.77377 -43.34707,23.29907 -6.57044,3.98725 -13.21357,7.86307 -20.04803,11.37861 -17.57348,9.03952 -36.81351,15.97421 -50.93287,29.80114 -8.35702,8.18394 -14.44686,18.35912 -21.86237,27.40494 -7.56709,9.23073 -16.49459,17.25771 -25.75069,24.79374 -3.3318,2.71265 -6.78188,5.44571 -9.02144,9.11228 -1.11978,1.83329 -1.91377,3.88893 -2.12419,6.02682 -0.21042,2.13789 0.18587,4.36008 1.28889,6.2035 1.05609,1.76498 2.69455,3.10871 3.86265,4.80164 1.688,2.44642 2.30275,5.53258 2.07037,8.49574 -0.23237,2.96317 -1.26396,5.8178 -2.62825,8.45845 -2.72859,5.2813 -6.78849,9.81807 -9.23011,15.23801 -3.41649,7.58396 -3.3843,16.19972 -4.87655,24.38275 -0.95173,5.21898 -2.54879,10.42201 -2.16736,15.71333 0.33711,4.67651 2.20945,9.11051 4.4503,13.229 2.24086,4.11848 4.87416,8.02271 6.92832,12.23742 5.87138,12.04685 6.61607,26.57479 1.62552,39.0124 -2.0648,5.14597 -5.04447,9.89774 -6.94437,15.10684 -1.20516,3.30428 -1.96575,6.90157 -1.21772,10.33831 0.37401,1.71837 1.13147,3.36736 2.28851,4.69173 1.15703,1.32436 2.724,2.31044 4.44714,2.66182 1.48246,0.3023 3.03769,0.13235 4.47537,-0.33894 1.43769,-0.47129 2.7656,-1.2349 3.99497,-2.11678 5.55552,-3.98521 9.0134,-10.21673 11.96202,-16.3853 2.94862,-6.16858 5.65278,-12.61339 10.25851,-17.6664 6.30701,-6.9195 15.46321,-10.46311 22.7521,-16.33932 3.13036,-2.52366 5.89917,-5.4652 8.9579,-8.07521 3.05873,-2.61001 6.49819,-4.92634 10.4036,-5.88329 3.4267,-0.83965 7.01046,-0.58919 10.53756,-0.50644 3.5271,0.0827 7.1786,-0.0343 10.37559,-1.52649 3.48231,-1.62534 6.0435,-4.69747 9.15895,-6.94739 1.55773,-1.12497 3.29366,-2.05857 5.18062,-2.42113 1.88695,-0.36256 3.94312,-0.10639 5.5299,0.97721 0.93347,0.63746 1.67025,1.53108 2.2499,2.5015 0.57965,0.97042 1.011,2.02098 1.42502,3.07279 0.41402,1.0518 0.81425,2.11229 1.33753,3.11423 0.52328,1.00194 1.17677,1.95034 2.03145,2.69009 1.19152,1.0313 2.75888,1.6167 4.33471,1.62552 1.92517,0.0108 3.76309,-0.80307 5.40983,-1.80038 1.64675,-0.99732 3.17421,-2.19343 4.88511,-3.07617 2.66782,-1.37647 5.68178,-1.93879 8.67078,-2.21759 2.989,-0.27881 6.0007,-0.29121 8.9811,-0.65066 5.7678,-0.69563 11.3104,-2.67631 17.0536,-3.55155 3.4551,-0.52654 6.9667,-0.65032 10.4033,-1.28701 3.4365,-0.6367 6.8786,-1.84589 9.4486,-4.2145 1.0698,-0.986 1.9638,-2.14987 3.0316,-3.13809 0.5339,-0.49411 1.1129,-0.94477 1.7543,-1.28802 0.6414,-0.34324 1.3479,-0.57725 2.0738,-0.62459 1.1418,-0.0745 2.2585,0.30972 3.3352,0.6971 1.0767,0.38738 2.1835,0.78902 3.3271,0.75124 0.4493,-0.0148 0.8951,-0.0978 1.3447,-0.0976 0.2248,1.1e-4 0.4508,0.0213 0.6674,0.0813 0.2166,0.06 0.4242,0.15977 0.5949,0.306 0.27,0.23129 0.4351,0.56931 0.5007,0.91875 0.065,0.34945 0.038,0.71083 -0.03,1.05978 -0.1362,0.69791 -0.4323,1.36676 -0.4703,2.07683 -0.032,0.59522 0.1252,1.19768 0.4348,1.70703 0.3096,0.50936 0.7695,0.92446 1.3033,1.18966 0.7015,0.34852 1.5056,0.43474 2.2888,0.42169 0.7832,-0.013 1.5627,-0.11945 2.3459,-0.13202 2.2842,-0.0367 4.4969,0.72041 6.6623,1.44834 2.7218,0.91497 5.4572,1.79928 8.1107,2.89668 0.7629,0.31552 1.5215,0.64952 2.3174,0.86901 0.5933,0.16362 1.2027,0.26227 1.7983,0.41719 0.5956,0.15491 1.1862,0.37118 1.6777,0.74148 0.601,0.45277 1.0276,1.12968 1.1831,1.86592 0.1555,0.73623 0.04,1.52551 -0.3141,2.18944 -0.277,0.51925 -0.69,0.95586 -1.1473,1.32628 -0.4573,0.37043 -0.9606,0.67927 -1.4597,0.99107 -2.9352,1.83357 -5.7884,3.81267 -8.4004,6.08304 -1.8564,1.61363 -3.586,3.37019 -5.214,5.21403 -1.2091,1.36939 -2.3688,2.79612 -3.2717,4.38419 -0.9028,1.58806 -1.5445,3.3513 -1.6527,5.17487 -0.125,2.10648 0.4692,4.21382 1.4484,6.08304 2.1692,4.14071 6.0664,7.06212 8.9797,10.71773 4.0752,5.11361 6.1127,11.50331 8.9797,17.38011 2.0076,4.11516 4.4435,8.01356 6.3727,12.16608 3.7657,8.10563 5.5322,17.15321 4.9244,26.07017 -0.3394,4.97981 -1.4194,9.93546 -3.476,14.48342 -3.8426,8.49725 -10.8225,15.10432 -17.6698,21.43547 -0.3803,0.35167 -0.7647,0.70772 -1.0506,1.13966 -0.2859,0.43194 -0.4681,0.95415 -0.3978,1.46736 0.04,0.29103 0.1597,0.56864 0.3307,0.80753 0.1709,0.23888 0.3919,0.43981 0.6368,0.60201 0.4898,0.3244 1.0658,0.49196 1.6396,0.61814 1.5172,0.33364 3.0858,0.40836 4.6347,0.28967 3.4302,-0.26285 6.7228,-1.45984 9.8487,-2.89669 4.6452,-2.13524 9.0656,-4.85122 12.7454,-8.40039 1.7616,-1.69911 3.3422,-3.57706 5.0823,-5.29819 1.7401,-1.72113 3.6724,-3.30397 5.9251,-4.26087 1.439,-0.61124 2.981,-0.95534 4.4136,-1.58148 0.7162,-0.31307 1.4062,-0.69849 2.0041,-1.20199 0.598,-0.5035 1.1027,-1.12964 1.4033,-1.85122 0.3711,-0.89083 0.417,-1.89714 0.2307,-2.84403 -0.1863,-0.9469 -0.5956,-1.83895 -1.1025,-2.66013 -1.0139,-1.64236 -2.4132,-3.01573 -3.4708,-4.63031 -1.3747,-2.09882 -2.1323,-4.54784 -2.5842,-7.0158 -0.4518,-2.46796 -0.6134,-4.97834 -0.8942,-7.47155 -0.6145,-5.45561 -1.8008,-10.83545 -2.3898,-16.29386 -0.826,-7.6545 -0.5016,-15.56918 -3.1139,-22.81139 -2.2188,-6.15124 -6.3989,-11.36077 -10.4281,-16.51111 -0.4655,-0.59498 -0.9329,-1.19562 -1.2735,-1.86991 -0.3406,-0.67428 -0.55,-1.43489 -0.4645,-2.18545 0.1093,-0.95974 0.6999,-1.82292 1.4713,-2.40428 0.7714,-0.58136 1.7103,-0.90474 2.659,-1.08689 1.8972,-0.36431 3.8996,-0.20264 5.7184,-0.85385 1.2082,-0.43257 2.267,-1.20278 3.2337,-2.04671 0.9667,-0.84393 1.8598,-1.77101 2.8494,-2.58799 2.4287,-2.00506 5.3586,-3.28568 8.0606,-4.90386 1.3509,-0.80909 2.656,-1.71123 3.7848,-2.80928 1.1287,-1.09804 2.0798,-2.40111 2.638,-3.8736 0.2237,-0.5902 0.383,-1.20273 0.5892,-1.79928 0.2062,-0.59655 0.464,-1.1846 0.8592,-1.67674 0.4797,-0.59736 1.1469,-1.02921 1.8666,-1.29181 0.7197,-0.26261 1.4914,-0.36218 2.2575,-0.36562 1.5323,-0.007 3.0398,0.36191 4.5659,0.49875 3.4583,0.31008 7.0204,-0.61992 9.8665,-2.6089 2.846,-1.98898 4.9486,-5.02623 5.7756,-8.3985 0.9735,-3.96977 0.2059,-8.1253 -0.049,-12.20474 -0.1273,-2.03973 -0.123,-4.10447 0.2917,-6.10564 0.4147,-2.00118 1.2612,-3.94678 2.6539,-5.44244 1.0323,-1.10859 2.3242,-1.93433 3.5748,-2.78902 1.2506,-0.8547 2.4962,-1.77208 3.3772,-3.00435 1.0149,-1.41955 1.4776,-3.1724 1.6154,-4.91197 0.1378,-1.73958 -0.029,-3.48684 -0.167,-5.22642 -0.3813,-4.82014 -0.5357,-9.678 0,-14.48343 0.6789,-6.08936 2.4531,-11.99737 3.6087,-18.0145 1.1556,-6.01712 1.6741,-12.33944 -0.1327,-18.19406 -0.8406,-2.72382 -2.1955,-5.32107 -4.1686,-7.37848 -1.973,-2.05741 -4.5916,-3.54847 -7.4181,-3.91859 -0.961,-0.12584 -1.9367,-0.12376 -2.8935,-0.27839 -0.9568,-0.15462 -1.9224,-0.4871 -2.6102,-1.16996 -0.6845,-0.67957 -1.0249,-1.63933 -1.1667,-2.59341 -0.1419,-0.95407 -0.1062,-1.92445 -0.1537,-2.88784 -0.2132,-4.32718 -2.2138,-8.57406 -5.5374,-11.35319 -2.8692,-2.39919 -6.6513,-3.65509 -10.3894,-3.53205 -1.8281,0.0602 -3.6453,0.43867 -5.3454,1.11338 -0.992,-2.82423 -1.342,-5.87185 -1.0162,-8.84744 0.1232,-1.12536 0.3415,-2.23963 0.4344,-3.3679 0.058,-0.70858 0.067,-1.42119 0.1487,-2.12747 0.082,-0.70629 0.2395,-1.41404 0.576,-2.04033 0.5283,-0.98322 1.4571,-1.6931 2.439,-2.22392 0.9819,-0.53082 2.0381,-0.91195 3.0288,-1.42608 3.2972,-1.71105 5.6599,-4.76645 8.5815,-7.06067 2.8375,-2.22824 6.1752,-3.71665 9.2174,-5.65614 1.5211,-0.96975 2.9772,-2.0603 4.2124,-3.37495 1.2353,-1.31464 2.2471,-2.86355 2.7916,-4.58333 0.5587,-1.7645 0.6115,-3.64403 0.6393,-5.49464 0.028,-1.85062 0.039,-3.72547 0.5194,-5.51276 0.6764,-2.51443 2.2475,-4.72012 2.8967,-7.24171 0.4338,-1.68516 0.4391,-3.4457 0.5889,-5.17934 0.1499,-1.73364 0.4696,-3.5138 1.4387,-4.95906 0.5862,-0.87425 1.3905,-1.59004 2.2843,-2.14591 0.8939,-0.55586 1.8771,-0.95651 2.8824,-1.26839 2.0107,-0.62375 4.1158,-0.89925 6.1304,-1.51006 2.6079,-0.79067 5.0107,-2.12551 7.4927,-3.25066 2.482,-1.12515 5.1364,-2.05883 7.8598,-1.96338 2.5508,0.0894 5.0276,1.07879 7.5785,0.98954 1.2754,-0.0446 2.5728,-0.37941 3.5857,-1.15577 0.5064,-0.38819 0.9345,-0.88351 1.2185,-1.4549 0.2841,-0.57139 0.421,-1.21946 0.3627,-1.85489 -0.071,-0.77008 -0.4229,-1.49512 -0.9,-2.10373 -0.477,-0.60861 -1.0757,-1.11072 -1.6942,-1.57488 -0.6185,-0.46416 -1.2622,-0.8957 -1.8572,-1.3896 -0.5951,-0.4939 -1.1454,-1.05672 -1.5282,-1.72865 -0.7266,-1.27541 -0.7868,-2.82421 -0.6402,-4.28473 0.1466,-1.46051 0.481,-2.90645 0.4747,-4.37429 -0.01,-2.44451 -0.9765,-4.81343 -2.3647,-6.82557 -1.3882,-2.01213 -3.1851,-3.7053 -5.0259,-5.31372 -1.8409,-1.60841 -3.7459,-3.15429 -5.4132,-4.942 -1.6673,-1.78771 -3.1044,-3.84818 -3.8211,-6.1853 -0.8308,-2.70945 -0.6497,-5.61276 -0.432,-8.43836 0.2177,-2.8256 0.459,-5.71458 -0.2612,-8.45552 -0.9925,-3.77729 -3.8475,-6.97881 -7.4182,-8.5608 -3.5707,-1.58199 -7.7791,-1.56739 -11.4102,-0.12926 -2.2793,0.90275 -4.3104,2.3196 -6.3809,3.63242 -2.0704,1.31283 -4.2498,2.55133 -6.6542,3.02996 -3.3676,0.67036 -6.8622,-0.21519 -10.0327,-1.53362 -3.1705,-1.31842 -6.154,-3.07042 -9.3751,-4.25979 -4.4495,-1.64295 -9.2175,-2.1661 -13.9041,-2.89669 -4.0782,-0.63576 -8.1933,-1.44021 -12.3019,-1.04618 z"
         id="path17-2-0-5-8-3"
         inkscape:path-effect="#path-effect1134"
         inkscape:original-d="m 1107.9614,175.38507 c -4.1017,-0.34972 -9.7521,3.97449 -14.6297,5.96023 -4.8775,1.98574 -11.9195,9.03165 -17.8807,13.54597 -5.9612,4.51433 -8.3072,4.33571 -12.4623,6.50207 -4.1551,2.16635 -21.3113,6.86429 -31.9685,10.29494 -10.6571,3.43064 -28.897,15.53371 -43.34707,23.29907 -14.45003,7.76535 -13.36436,7.58674 -20.04803,11.37861 -6.68368,3.79187 -33.95425,19.86843 -50.93287,29.80114 -16.97861,9.93271 -13.55317,15.84672 -21.86237,27.40494 -4.1546,5.77911 -17.55306,15.28694 -25.75069,24.79374 -8.19763,9.5068 -14.25663,26.28532 -9.85674,21.3426 8.50694,-9.55649 5.12794,-1.51881 3.86265,4.80164 -1.26529,6.32045 -7.80025,21.71765 -9.78799,32.1922 -1.98774,10.47455 -3.25003,16.25617 -4.87655,24.38275 -1.62652,8.12658 -1.4439,10.47655 -2.16736,15.71333 -0.72345,5.23677 7.58675,16.97862 11.37862,25.46642 3.79187,8.48781 1.08468,26.00927 1.62552,39.0124 0.54083,13.00313 -2.96988,9.68945 -6.94437,15.10684 -3.97448,5.41738 5.33832,12.81631 5.51793,17.69186 0.17961,4.87554 2.3305,-2.27411 8.47034,-2.45572 6.13984,-0.18162 16.98375,-27.54864 22.22053,-34.0517 5.23677,-6.50307 13,-6.04338 22.7521,-16.33932 9.75209,-10.29593 5.63591,-8.53911 19.3615,-13.9585 13.72558,-5.41939 15.85698,1.58033 20.91315,-2.03293 5.05616,-3.61326 18.60618,-9.29338 19.86947,-8.39131 1.26329,0.90206 4.69693,7.58674 7.0439,11.37861 2.34697,3.79187 2.89081,1.08468 4.33471,1.62552 1.44391,0.54084 6.8643,-3.25004 10.29494,-4.87655 3.43065,-1.62652 9.34468,-1.78358 17.65188,-2.86825 8.3071,-1.08468 5.3732,0.0575 17.0536,-3.55155 5.8402,-1.80455 30.4389,15.80805 19.8519,-5.50151 -2.4721,-4.9758 6.6188,-4.56742 6.8597,-5.0507 0.4817,-0.96656 4.4425,0.96656 6.6623,1.44834 2.2198,0.48178 1.739,0.19412 2.607,0.28967 0.868,0.0956 10e-4,2.70458 0,4.05536 -10e-4,1.35079 1.1597,1.93212 1.7381,2.89669 0.5783,0.96456 3.0908,0.19411 4.6347,0.28967 1.5438,0.0956 4.4425,0.96656 6.6623,1.44834 2.2198,0.48178 5.4082,1.93212 8.1107,2.89668 2.7026,0.96456 1.5459,0.58034 2.3174,0.86901 0.7714,0.28867 2.3183,0.77345 3.476,1.15867 1.1577,0.38523 0.5804,2.70457 0.869,4.05536 0.2887,1.35079 -1.737,1.5459 -2.607,2.31735 -0.87,0.77145 -5.5993,4.05636 -8.4004,6.08304 -2.8011,2.02668 -3.475,3.47702 -5.214,5.21403 -1.739,1.73701 -3.2819,6.37371 -4.9244,9.55906 -1.6424,3.18536 0.9666,4.05636 1.4484,6.08304 0.4817,2.02668 5.9874,7.14616 8.9797,10.71773 2.9922,3.57158 5.9875,11.58774 8.9797,17.38011 2.9923,5.79238 4.2495,8.11172 6.3727,12.16608 2.1233,4.05436 3.2839,17.38111 4.9244,26.07017 1.6404,8.68905 -2.3164,9.65661 -3.476,14.48342 -1.1597,4.82681 -11.7789,14.29132 -17.6698,21.43547 -5.8909,7.14416 -0.9646,1.73901 -1.4484,2.60702 -0.4837,0.868 1.739,1.35278 2.6071,2.02768 0.868,0.67489 3.0908,0.19411 4.6347,0.28967 1.5438,0.0956 6.5668,-1.93013 9.8487,-2.89669 3.2819,-0.96656 8.4979,-5.59926 12.7454,-8.40039 4.2475,-2.80112 7.3393,-6.3717 11.0074,-9.55906 3.6681,-3.18735 5.215,-3.08879 7.821,-4.63469 2.6061,-1.5459 -2.6036,-6.27123 -4.3426,-10.13447 -1.739,-3.86325 -2.6084,-10.14133 -3.4784,-14.48735 -0.435,-2.17302 -1.352,-8.69031 -2.3898,-16.29386 -1.0377,-7.60355 -2.1961,-16.29335 -3.1139,-22.81139 -1.8356,-13.03609 -6.951,-11.00641 -10.4281,-16.51111 -3.477,-5.5047 -1.1576,-2.70257 -1.738,-4.05536 -0.5803,-1.35278 6.5668,-2.89568 9.8487,-4.34502 3.282,-1.44935 4.0564,-3.0888 6.0831,-4.6347 2.0267,-1.5459 9.6566,-7.72349 14.4834,-11.58674 4.8268,-3.86325 0.9666,-2.31635 1.4484,-3.47602 0.4817,-1.15968 5.7943,-0.77145 8.69,-1.15868 2.8957,-0.38722 10.4291,-7.33726 15.6421,-11.0074 5.213,-3.67013 1.9321,-15.83421 2.8967,-23.75282 0.9646,-7.9186 4.6357,-3.86124 6.952,-5.79337 2.3164,-1.93212 0.9666,-6.75793 1.4484,-10.13839 0.4818,-3.38047 10e-4,-9.65462 0,-14.48343 -10e-4,-4.82881 2.3183,-24.13804 3.476,-36.20856 1.1577,-12.07052 -7.7235,-7.53038 -11.5867,-11.29707 -3.8633,-3.76669 -3.6682,-0.96457 -5.5037,-1.44835 -1.8356,-0.48378 -1.3194,-3.06634 -1.3204,-5.48125 -10e-4,-2.4149 -4.5708,-9.03485 -5.5374,-11.35319 -0.9665,-2.31835 -4.8847,-1.69649 -10.3894,-3.53205 -5.5047,-1.83557 -5.3454,1.11338 -5.3454,1.11338 0,0 -1.3544,-6.86829 -1.0162,-8.84744 0.1691,-0.98958 0.2412,-2.34203 0.4344,-3.3679 0.1931,-1.02588 0.6525,-3.32269 0.7247,-4.1678 0.1443,-1.69023 2.6071,-1.29669 5.4678,-3.65 2.8608,-2.3533 6.2646,-4.83938 8.5815,-7.06067 4.6337,-4.44258 10.8153,-9.07528 16.2214,-13.61442 5.4062,-4.53914 0.7735,-7.33727 1.1587,-11.0074 0.3852,-3.67013 1.9321,-4.82681 2.8967,-7.24171 0.9645,-2.41491 1.3528,-6.75793 2.0276,-10.1384 0.6749,-3.38047 7.5324,-3.28191 11.2971,-4.92436 3.7647,-1.64246 10.236,-3.47503 15.3525,-5.21404 5.1164,-1.73901 8.4979,-2.31635 12.7454,-3.47602 4.2474,-1.15967 -4.2406,-3.12673 -5.9796,-6.79686 -1.739,-3.67014 2.4425,-3.34743 -0.1655,-8.65902 -2.6081,-5.31159 -14.0169,-19.21023 -16.6249,-23.26659 -2.6081,-4.05636 0.1768,-11.38918 -0.6932,-16.89388 -0.87,-5.5047 -12.5513,-5.79237 -18.8284,-8.69006 -6.2772,-2.89768 -8.6891,4.44259 -13.0351,6.66238 -4.346,2.21975 -12.9375,-3.86129 -19.4078,-5.79341 -6.4703,-1.93212 -9.2684,-1.93012 -13.9041,-2.89669 -4.6357,-0.96656 -8.2003,-0.69645 -12.3019,-1.04618 z"
         sodipodi:nodetypes="sssssssssssssssssssssssssssssssssssssssssssssssssssssssssssssssssssssssssssssssssscsssssssssssssssssssss" />
      <path
         style="fill:none;stroke:#000000;stroke-width:4.58619;stroke-linecap:butt;stroke-linejoin:miter;stroke-miterlimit:4;stroke-dasharray:none;stroke-opacity:1"
         d="m 1070.6679,359.67762 c -4.5091,3.36259 -7.3857,8.47095 -11.5247,12.27987 -3.5182,3.2377 -7.8378,5.44005 -11.8806,7.99281 -4.0428,2.55276 -7.9814,5.646 -10.0721,9.94595 -1.0459,2.15108 -1.5798,4.50707 -2.278,6.79476 -0.6983,2.28769 -1.6045,4.58432 -3.236,6.33343 -1.9224,2.06102 -4.6459,3.1513 -7.3068,4.08046 -2.6608,0.92916 -5.4209,1.79531 -7.6236,3.55358 -2.4542,1.95905 -3.9721,4.82803 -5.4478,7.59992 -1.4757,2.7719 -3.0543,5.62145 -5.5786,7.48928 -1.791,1.32522 -3.9381,2.0627 -6.04972,2.77333 -2.11162,0.71064 -4.26172,1.43202 -6.071,2.7322 -1.68295,1.20939 -2.99863,2.86988 -4.66461,4.10254 -0.68724,0.50849 -1.4344,0.94455 -2.04495,1.54296 -0.30527,0.2992 -0.57479,0.6391 -0.76352,1.02263 -0.18873,0.38353 -0.29448,0.81257 -0.26878,1.23925 0.0271,0.4505 0.20078,0.88661 0.46539,1.25221 0.26461,0.36561 0.61757,0.66255 1.00759,0.88965 0.78002,0.4542 1.68874,0.62774 2.58238,0.75482 5.38466,0.76573 10.87012,0.1029 16.22142,-0.869 12.604,-2.28911 24.9933,-6.34694 35.9189,-13.03509 4.4771,-2.74067 8.8124,-5.96487 13.9041,-7.24171 5.9535,-1.49296 12.196,-0.14751 18.2491,0.86901 8.3633,1.40448 16.8216,2.17241 25.2012,3.47602 3.842,0.5977 7.7014,1.31032 11.5867,1.15867 2.8809,-0.11245 5.7884,-0.72209 8.2898,-2.15585 2.5013,-1.43375 4.5661,-3.75264 5.3246,-6.5342 0.7982,-2.92722 0.1192,-6.03239 -0.601,-8.97977 -0.7202,-2.94739 -1.4844,-6.01323 -0.8473,-8.97968 0.3371,-1.56935 1.0533,-3.02994 1.5129,-4.56787 0.2298,-0.76897 0.3958,-1.5623 0.4119,-2.36471 0.016,-0.80241 -0.1225,-1.61655 -0.4765,-2.33681 -0.5594,-1.13799 -1.6088,-1.95971 -2.7121,-2.58473 -1.1033,-0.62503 -2.2919,-1.09415 -3.3709,-1.7603 -2.0435,-1.26169 -3.6012,-3.16898 -5.5037,-4.6347 -2.0599,-1.58696 -4.4899,-2.6287 -6.9661,-3.42244 -2.4762,-0.79373 -5.0206,-1.35465 -7.5173,-2.08126 -3.6759,-1.06978 -7.377,-2.58631 -9.9729,-5.40024 -1.6944,-1.83679 -2.8381,-4.1764 -3.2409,-6.64271 -0.4754,-2.91106 0.065,-5.8778 0.2361,-8.82244 0.1442,-2.47665 0.026,-4.96852 -0.3525,-7.42035 -1.2662,0.73813 -2.4304,1.65081 -3.4495,2.70413 -1.2674,1.30997 -2.3073,2.83135 -3.6264,4.08924 -2.192,2.09024 -5.0362,3.34647 -7.4642,5.15714 z"
         id="path25-6-8-3-9-2"
         inkscape:path-effect="#path-effect1136"
         inkscape:original-d="m 1070.6679,359.67762 c -0.097,-2.51146 -2.8336,3.97704 -11.5247,12.27987 -8.691,8.30283 -13.3582,9.15315 -21.9527,17.93876 -8.5945,8.78561 518.7715,134.23451 -5.514,13.12819 -3.5001,-0.80849 -9.2242,2.9497 -14.9304,7.63404 -5.7062,4.68435 -7.5982,12.19302 -11.0264,15.0892 -3.4283,2.89619 -8.41056,3.32279 -12.12072,5.50553 -1.85508,1.09136 -3.39212,2.62176 -4.66461,4.10254 -1.27248,1.48078 -2.28041,2.91194 -3.07725,3.80484 -3.18735,3.57157 2.70457,1.93212 4.05536,2.89668 1.35079,0.96456 10.81532,-0.57834 16.22142,-0.869 5.4062,-0.29067 23.9469,-8.68906 35.9189,-13.03509 11.972,-4.34603 9.2704,-4.82681 13.9041,-7.24171 4.6337,-2.4149 12.1671,0.58034 18.2491,0.86901 6.082,0.28866 16.8018,2.31834 25.2012,3.47602 8.3994,1.15767 7.7255,0.77345 11.5867,1.15867 3.8613,0.38523 9.0773,-5.79237 13.6144,-8.69005 4.5372,-2.89769 -0.9645,-11.97197 -1.4483,-17.95945 -0.4838,-5.98748 0.9665,-6.1786 1.4483,-9.26939 0.4818,-3.0908 -4.0543,-2.89569 -6.083,-4.34503 -2.0287,-1.44934 -3.6681,-3.0888 -5.5037,-4.6347 -1.8356,-1.5459 -9.6546,-3.66813 -14.4834,-5.5037 -4.8288,-1.83557 -5.6269,-3.85435 -9.9729,-5.40024 -4.346,-1.5459 -3.7226,-3.3588 -3.2409,-6.64271 0.2409,-1.64196 0.5022,-6.44499 0.2361,-8.82244 -0.2662,-2.37744 -0.1107,-6.26118 -0.3525,-7.42035 0,0 -2.1772,1.2632 -3.4495,2.70413 -1.2723,1.44092 -1.7605,2.47999 -3.6264,4.08924 -3.7319,3.2185 -7.4154,6.41287 -7.4642,5.15714 z"
         sodipodi:nodetypes="sssssssssssssssssssssssssssss" />
      <path
         style="fill:none;stroke:#000000;stroke-width:4.58619;stroke-linecap:butt;stroke-linejoin:miter;stroke-miterlimit:4;stroke-dasharray:none;stroke-opacity:1"
         d="m 1114.8317,320.93624 c -0.9762,0.53588 -1.9197,1.13146 -2.8228,1.7831 -2.1092,1.52192 -3.9927,3.34717 -5.6418,5.35848 -1.3703,1.67135 -2.5927,3.48425 -4.2022,4.92672 -1.7397,1.55913 -3.9038,2.6595 -5.3647,4.4824 -1.482,1.84918 -2.0873,4.29336 -2.0277,6.66238 0.069,2.73084 0.9621,5.38644 2.1792,7.83204 0.7658,1.53874 1.6786,3.06289 1.8808,4.76971 0.1325,1.11895 -0.051,2.25153 0,3.3773 0.024,0.56288 0.1069,1.12831 0.3102,1.65372 0.2034,0.52541 0.5329,1.01076 0.9877,1.34326 0.4161,0.30417 0.923,0.47047 1.4356,0.5241 0.5126,0.0536 1.0319,-10e-4 1.5359,-0.10934 1.0079,-0.21592 1.9621,-0.64083 2.971,-0.85201 2.1062,-0.44085 4.2811,0.0743 6.3728,0.57934 1.4884,0.35941 2.997,0.72213 4.345,1.44834 0.9472,0.51027 1.7916,1.18774 2.665,1.81593 0.8734,0.62819 1.7972,1.21775 2.8308,1.51644 1.7528,0.50653 3.6322,0.12935 5.3879,-0.36687 1.7557,-0.49623 3.5173,-1.11563 5.3416,-1.08932 0.833,0.012 1.6757,0.1588 2.4925,-0.005 0.4084,-0.0819 0.8069,-0.24488 1.1233,-0.51569 0.3165,-0.27081 0.5451,-0.65618 0.5801,-1.07124 0.022,-0.26233 -0.033,-0.52841 -0.1399,-0.76884 -0.1073,-0.24042 -0.2658,-0.45595 -0.4504,-0.6437 -0.3691,-0.37551 -0.8352,-0.63769 -1.2921,-0.89932 -2.5366,-1.45241 -5.0011,-3.04723 -7.2417,-4.92436 -1.9555,-1.63827 -3.734,-3.48741 -5.2968,-5.50371 -1.5415,-1.98876 -2.8766,-4.14697 -3.8559,-6.46476 -0.8696,-2.05809 -1.4536,-4.22899 -1.8563,-6.42666 -0.3937,-2.14848 -0.6162,-4.33246 -0.5778,-6.51637 0.036,-2.03783 0.2981,-4.06437 0.5793,-6.08303 0.1582,-1.13552 0.3233,-2.27413 0.6349,-3.37745 0.2894,-1.0245 0.7024,-2.00902 1.1032,-2.99526 0.1958,-0.4817 0.3889,-0.96449 0.5793,-1.44834 -1.577,0.52232 -3.1063,1.18868 -4.5626,1.98808 z"
         id="path29-8-9-7-8-0"
         inkscape:path-effect="#path-effect1138"
         inkscape:original-d="m 1114.8317,320.93624 c -1.5718,3.14056 -0.043,0.86175 -2.8228,1.7831 -2.8121,0.93214 -2.9373,3.52491 -5.6418,5.35848 -2.7046,1.83357 -3.0425,3.57593 -4.2022,4.92672 -1.1597,1.35078 -4.3016,2.0695 -5.3647,4.4824 -1.0632,2.41291 -1.3508,4.44258 -2.0277,6.66238 -0.6769,2.21979 2.2767,6.57781 2.1792,7.83204 -0.098,1.25423 1.0128,1.97058 1.8808,4.76971 0.868,2.79913 -0.2494,4.44416 1.2945,6.37428 1.5439,1.93013 4.4952,-0.62936 5.9425,-0.43725 1.4474,0.19211 4.2495,0.38723 6.3728,0.57934 2.1232,0.19211 2.8976,0.96656 4.345,1.44834 1.4473,0.48178 -10.6137,4.26928 5.4958,3.33237 2.9557,-0.1719 8.6063,-1.93797 10.7295,-1.45619 2.1233,0.48178 2.2658,-0.91511 4.1959,-1.592 1.9301,-0.67689 -1.2055,-0.86252 -1.8824,-2.31186 -0.6769,-1.44934 -4.8268,-3.28191 -7.2417,-4.92436 -2.415,-1.64246 -4.0406,-3.66814 -5.2968,-5.50371 -1.2563,-1.83556 -2.7927,-4.82231 -3.8559,-6.46476 -1.0631,-1.64245 -0.6967,-3.9152 -1.8563,-6.42666 -1.1597,-2.51146 -0.1906,-4.19802 -0.5778,-6.51637 -0.3872,-2.31834 0.3872,-4.05435 0.5793,-6.08303 0.1922,-2.02868 0.1531,-2.02467 0.6349,-3.37745 0.4818,-1.35279 1.0076,-2.22181 1.1032,-2.99526 0.096,-0.77345 0.5793,-1.44834 0.5793,-1.44834 0,0 -4.3691,1.6015 -4.5626,1.98808 z"
         sodipodi:nodetypes="sssssssssssssssssssssssscs" />
    </g>
    <text
       xml:space="preserve"
       style="font-style:normal;font-variant:normal;font-weight:normal;font-stretch:normal;font-size:40.8805px;line-height:1.25;font-family:'Eras Bold ITC';-inkscape-font-specification:'Eras Bold ITC';letter-spacing:0px;word-spacing:0px;stroke-width:0.547506"
       x="76.470047"
       y="121.01431"
       id="text865-6-0-5-4-8"><tspan
         sodipodi:role="line"
         id="tspan863-7-3-4-0-2"
         x="76.470047"
         y="121.01431"
         style="stroke-width:0.547506"><tspan
   style="font-size:37.3333px;stroke-width:0.547506"
   id="tspan965-8-5-6">C</tspan><tspan
   style="font-size:37.3333px"
   id="tspan55">limb Taiwan</tspan> </tspan><tspan
         sodipodi:role="line"
         x="76.470047"
         y="172.11494"
         id="tspan1021-8-6"
         style="stroke-width:0.547506" /></text>
  </g>
</svg>
